<svg xmlns="http://www.w3.org/2000/svg" width="1012" height="220" viewBox="0 0 1012 220" role="img" aria-label="Telemetry trace">
<defs><path id="tr" d="M0 170 C 70 170, 96 108, 150 108 S 250 148, 310 120 S 400 54, 470 72 S 560 154, 640 130 S 740 60, 820 88 S 930 140, 1012 118"></path><linearGradient id="tg" x1="0" y1="0" x2="1" y2="0"><stop offset="0%" stop-color="#9184d9" stop-opacity=".25"></stop><stop offset="50%" stop-color="#9184d9" stop-opacity="1"></stop><stop offset="100%" stop-color="#9184d9" stop-opacity=".25"></stop></linearGradient></defs>
<rect width="1012" height="220" fill="#0A0B12"></rect>
<circle cx="760.5" cy="70.3" r="0.75" fill="#cfd3e6" opacity="0.07"></circle><circle cx="212.6" cy="108.3" r="0.73" fill="#cfd3e6" opacity="0.24"></circle><circle cx="960.5" cy="153.1" r="0.81" fill="#cfd3e6" opacity="0.35"></circle><circle cx="792.1" cy="12.9" r="0.20" fill="#cfd3e6" opacity="0.12"></circle><circle cx="545.5" cy="112.5" r="0.98" fill="#cfd3e6" opacity="0.23"></circle><circle cx="650.7" cy="31.8" r="0.38" fill="#cfd3e6" opacity="0.11"></circle><circle cx="293.1" cy="166.0" r="0.93" fill="#cfd3e6" opacity="0.22"></circle><circle cx="8.5" cy="18.1" r="0.46" fill="#cfd3e6" opacity="0.19"></circle><circle cx="376.7" cy="14.8" r="0.97" fill="#cfd3e6" opacity="0.31"></circle><circle cx="425.5" cy="180.5" r="0.35" fill="#cfd3e6" opacity="0.05"></circle><circle cx="62.6" cy="159.8" r="0.99" fill="#cfd3e6" opacity="0.07"></circle><circle cx="708.0" cy="124.0" r="0.37" fill="#cfd3e6" opacity="0.15"></circle><circle cx="242.3" cy="182.2" r="0.32" fill="#cfd3e6" opacity="0.30"></circle><circle cx="923.4" cy="77.0" r="0.29" fill="#cfd3e6" opacity="0.12"></circle><circle cx="111.0" cy="132.2" r="0.86" fill="#cfd3e6" opacity="0.08"></circle><circle cx="377.7" cy="147.2" r="1.00" fill="#cfd3e6" opacity="0.07"></circle><circle cx="207.8" cy="102.0" r="0.96" fill="#cfd3e6" opacity="0.32"></circle><circle cx="945.9" cy="109.6" r="0.70" fill="#cfd3e6" opacity="0.14"></circle><circle cx="627.2" cy="24.9" r="0.76" fill="#cfd3e6" opacity="0.34"></circle><circle cx="834.5" cy="120.4" r="0.46" fill="#cfd3e6" opacity="0.08"></circle><circle cx="880.5" cy="143.5" r="0.24" fill="#cfd3e6" opacity="0.28"></circle><circle cx="360.0" cy="195.7" r="0.32" fill="#cfd3e6" opacity="0.06"></circle><circle cx="943.2" cy="3.2" r="0.84" fill="#cfd3e6" opacity="0.28"></circle><circle cx="543.2" cy="195.6" r="0.55" fill="#cfd3e6" opacity="0.34"></circle><circle cx="324.0" cy="45.0" r="0.97" fill="#cfd3e6" opacity="0.09"></circle><circle cx="656.6" cy="48.4" r="0.63" fill="#cfd3e6" opacity="0.11"></circle><circle cx="943.7" cy="118.6" r="0.55" fill="#cfd3e6" opacity="0.21"></circle><circle cx="650.9" cy="171.8" r="0.44" fill="#cfd3e6" opacity="0.24"></circle><circle cx="889.8" cy="81.1" r="0.53" fill="#cfd3e6" opacity="0.32"></circle><circle cx="524.1" cy="61.8" r="0.61" fill="#cfd3e6" opacity="0.15"></circle><circle cx="30.8" cy="84.3" r="0.24" fill="#cfd3e6" opacity="0.32"></circle><circle cx="118.3" cy="100.1" r="0.86" fill="#cfd3e6" opacity="0.07"></circle><circle cx="477.9" cy="146.1" r="0.52" fill="#cfd3e6" opacity="0.28"></circle><circle cx="778.6" cy="173.4" r="0.80" fill="#cfd3e6" opacity="0.29"></circle><circle cx="38.1" cy="217.3" r="0.29" fill="#cfd3e6" opacity="0.10"></circle><circle cx="803.8" cy="14.0" r="0.21" fill="#cfd3e6" opacity="0.26"></circle><circle cx="88.3" cy="61.9" r="0.74" fill="#cfd3e6" opacity="0.28"></circle><circle cx="43.1" cy="130.4" r="0.33" fill="#cfd3e6" opacity="0.34"></circle><circle cx="463.8" cy="182.6" r="0.28" fill="#cfd3e6" opacity="0.34"></circle><circle cx="965.0" cy="148.1" r="0.71" fill="#cfd3e6" opacity="0.18"></circle><circle cx="387.3" cy="36.4" r="0.49" fill="#cfd3e6" opacity="0.09"></circle><circle cx="990.7" cy="18.8" r="0.25" fill="#cfd3e6" opacity="0.23"></circle><circle cx="740.8" cy="192.9" r="0.85" fill="#cfd3e6" opacity="0.28"></circle><circle cx="351.8" cy="194.9" r="0.75" fill="#cfd3e6" opacity="0.25"></circle><circle cx="614.7" cy="209.5" r="0.79" fill="#cfd3e6" opacity="0.16"></circle><circle cx="978.4" cy="157.2" r="0.89" fill="#cfd3e6" opacity="0.21"></circle><circle cx="503.7" cy="54.1" r="0.48" fill="#cfd3e6" opacity="0.23"></circle><circle cx="45.9" cy="203.5" r="0.67" fill="#cfd3e6" opacity="0.22"></circle><circle cx="537.7" cy="16.9" r="0.84" fill="#cfd3e6" opacity="0.18"></circle><circle cx="802.3" cy="59.5" r="0.28" fill="#cfd3e6" opacity="0.34"></circle><circle cx="792.4" cy="215.1" r="0.20" fill="#cfd3e6" opacity="0.14"></circle><circle cx="242.7" cy="189.9" r="0.23" fill="#cfd3e6" opacity="0.34"></circle><circle cx="138.3" cy="25.9" r="0.92" fill="#cfd3e6" opacity="0.08"></circle><circle cx="137.2" cy="212.6" r="0.99" fill="#cfd3e6" opacity="0.05"></circle><circle cx="740.6" cy="185.1" r="0.46" fill="#cfd3e6" opacity="0.13"></circle><circle cx="810.1" cy="51.7" r="0.97" fill="#cfd3e6" opacity="0.26"></circle><circle cx="330.7" cy="30.0" r="0.29" fill="#cfd3e6" opacity="0.18"></circle><circle cx="513.5" cy="160.4" r="0.33" fill="#cfd3e6" opacity="0.31"></circle><circle cx="984.1" cy="115.4" r="0.83" fill="#cfd3e6" opacity="0.22"></circle><circle cx="81.4" cy="19.1" r="0.64" fill="#cfd3e6" opacity="0.20"></circle><circle cx="247.4" cy="181.5" r="0.81" fill="#cfd3e6" opacity="0.26"></circle><circle cx="801.6" cy="165.5" r="0.48" fill="#cfd3e6" opacity="0.21"></circle><circle cx="917.5" cy="48.5" r="0.76" fill="#cfd3e6" opacity="0.17"></circle><circle cx="975.2" cy="43.5" r="0.88" fill="#cfd3e6" opacity="0.15"></circle><circle cx="995.6" cy="108.9" r="0.51" fill="#cfd3e6" opacity="0.09"></circle><circle cx="371.3" cy="113.6" r="1.00" fill="#cfd3e6" opacity="0.08"></circle><circle cx="509.4" cy="138.9" r="0.75" fill="#cfd3e6" opacity="0.07"></circle><circle cx="717.6" cy="122.5" r="0.91" fill="#cfd3e6" opacity="0.30"></circle><circle cx="452.2" cy="109.8" r="0.40" fill="#cfd3e6" opacity="0.13"></circle><circle cx="984.2" cy="103.4" r="0.30" fill="#cfd3e6" opacity="0.21"></circle><circle cx="852.8" cy="201.0" r="0.47" fill="#cfd3e6" opacity="0.12"></circle><circle cx="980.9" cy="56.6" r="0.86" fill="#cfd3e6" opacity="0.07"></circle><circle cx="398.6" cy="129.2" r="0.84" fill="#cfd3e6" opacity="0.20"></circle><circle cx="957.8" cy="215.0" r="0.60" fill="#cfd3e6" opacity="0.34"></circle><circle cx="298.0" cy="210.3" r="0.39" fill="#cfd3e6" opacity="0.23"></circle><circle cx="2.9" cy="194.4" r="0.40" fill="#cfd3e6" opacity="0.13"></circle><circle cx="222.6" cy="143.7" r="0.61" fill="#cfd3e6" opacity="0.35"></circle><circle cx="345.8" cy="173.9" r="0.87" fill="#cfd3e6" opacity="0.34"></circle><circle cx="704.8" cy="216.7" r="0.61" fill="#cfd3e6" opacity="0.28"></circle><circle cx="317.2" cy="110.3" r="0.91" fill="#cfd3e6" opacity="0.31"></circle><circle cx="342.5" cy="134.2" r="0.58" fill="#cfd3e6" opacity="0.06"></circle><circle cx="871.6" cy="193.7" r="0.53" fill="#cfd3e6" opacity="0.23"></circle><circle cx="707.2" cy="205.8" r="0.42" fill="#cfd3e6" opacity="0.34"></circle><circle cx="396.2" cy="177.5" r="0.30" fill="#cfd3e6" opacity="0.08"></circle><circle cx="749.8" cy="167.7" r="0.29" fill="#cfd3e6" opacity="0.17"></circle><circle cx="134.6" cy="199.3" r="0.32" fill="#cfd3e6" opacity="0.32"></circle><circle cx="176.4" cy="122.8" r="0.43" fill="#cfd3e6" opacity="0.34"></circle><circle cx="564.7" cy="86.8" r="0.83" fill="#cfd3e6" opacity="0.29"></circle><circle cx="589.2" cy="185.6" r="0.25" fill="#cfd3e6" opacity="0.15"></circle><circle cx="313.5" cy="29.3" r="0.27" fill="#cfd3e6" opacity="0.24"></circle>
<g stroke="#161a29" stroke-width="1"><path d="M63 0 V220"></path><path d="M126 0 V220"></path><path d="M189 0 V220"></path><path d="M252 0 V220"></path><path d="M315 0 V220"></path><path d="M378 0 V220"></path><path d="M441 0 V220"></path><path d="M504 0 V220"></path><path d="M567 0 V220"></path><path d="M630 0 V220"></path><path d="M693 0 V220"></path><path d="M756 0 V220"></path><path d="M819 0 V220"></path><path d="M882 0 V220"></path><path d="M945 0 V220"></path><path d="M0 44 H1012"></path><path d="M0 88 H1012"></path><path d="M0 132 H1012"></path><path d="M0 176 H1012"></path></g>
<path d="M28 0 V220" stroke="#252943" stroke-width="1"></path><path d="M28 10 H42" stroke="#2f3451" stroke-width="1"></path><path d="M28 24 H35" stroke="#2f3451" stroke-width="1"></path><path d="M28 38 H35" stroke="#2f3451" stroke-width="1"></path><path d="M28 52 H35" stroke="#2f3451" stroke-width="1"></path><path d="M28 66 H42" stroke="#2f3451" stroke-width="1"></path><path d="M28 80 H35" stroke="#2f3451" stroke-width="1"></path><path d="M28 94 H35" stroke="#2f3451" stroke-width="1"></path><path d="M28 108 H35" stroke="#2f3451" stroke-width="1"></path><path d="M28 122 H42" stroke="#2f3451" stroke-width="1"></path><path d="M28 136 H35" stroke="#2f3451" stroke-width="1"></path><path d="M28 150 H35" stroke="#2f3451" stroke-width="1"></path><path d="M28 164 H35" stroke="#2f3451" stroke-width="1"></path><path d="M28 178 H42" stroke="#2f3451" stroke-width="1"></path><path d="M28 192 H35" stroke="#2f3451" stroke-width="1"></path><path d="M28 206 H35" stroke="#2f3451" stroke-width="1"></path><path d="M984 0 V220" stroke="#252943" stroke-width="1"></path><path d="M984 10 H970" stroke="#2f3451" stroke-width="1"></path><path d="M984 24 H977" stroke="#2f3451" stroke-width="1"></path><path d="M984 38 H977" stroke="#2f3451" stroke-width="1"></path><path d="M984 52 H977" stroke="#2f3451" stroke-width="1"></path><path d="M984 66 H970" stroke="#2f3451" stroke-width="1"></path><path d="M984 80 H977" stroke="#2f3451" stroke-width="1"></path><path d="M984 94 H977" stroke="#2f3451" stroke-width="1"></path><path d="M984 108 H977" stroke="#2f3451" stroke-width="1"></path><path d="M984 122 H970" stroke="#2f3451" stroke-width="1"></path><path d="M984 136 H977" stroke="#2f3451" stroke-width="1"></path><path d="M984 150 H977" stroke="#2f3451" stroke-width="1"></path><path d="M984 164 H977" stroke="#2f3451" stroke-width="1"></path><path d="M984 178 H970" stroke="#2f3451" stroke-width="1"></path><path d="M984 192 H977" stroke="#2f3451" stroke-width="1"></path><path d="M984 206 H977" stroke="#2f3451" stroke-width="1"></path>
<path d="M0 170 C 70 170, 96 108, 150 108 S 250 148, 310 120 S 400 54, 470 72 S 560 154, 640 130 S 740 60, 820 88 S 930 140, 1012 118" fill="none" stroke="#2a2e47" stroke-width="1"></path>
<path d="M0 170 C 70 170, 96 108, 150 108 S 250 148, 310 120 S 400 54, 470 72 S 560 154, 640 130 S 740 60, 820 88 S 930 140, 1012 118" fill="none" stroke="url(#tg)" stroke-width="1.4" opacity="1"></path>
<text x="56" y="34" font-family="SFMono-Regular, Menlo, Consolas, Liberation Mono, monospace" font-size="10" letter-spacing="2.4" fill="#5d6180">TELEMETRY · CONTINUOUS ACQUISITION</text>
<text x="956" y="34" text-anchor="end" font-family="SFMono-Regular, Menlo, Consolas, Liberation Mono, monospace" font-size="10" letter-spacing="2.4" fill="#5d6180">CH 01</text>
<text x="56" y="200" font-family="SFMono-Regular, Menlo, Consolas, Liberation Mono, monospace" font-size="10" letter-spacing="2.4" fill="#4c5069">STATUS: ACTIVE</text>
</svg>